<?xml version="1.0" encoding="UTF-8" standalone="no"?>
<!-- Generator: Adobe Illustrator 22.1.0, SVG Export Plug-In . SVG Version: 6.00 Build 0)  -->

<svg
   xmlns:dc="http://purl.org/dc/elements/1.1/"
   xmlns:cc="http://creativecommons.org/ns#"
   xmlns:rdf="http://www.w3.org/1999/02/22-rdf-syntax-ns#"
   xmlns:svg="http://www.w3.org/2000/svg"
   xmlns="http://www.w3.org/2000/svg"
   xmlns:sodipodi="http://sodipodi.sourceforge.net/DTD/sodipodi-0.dtd"
   xmlns:inkscape="http://www.inkscape.org/namespaces/inkscape"
   version="1.1"
   id="Layer_1"
   x="0px"
   y="0px"
   viewBox="0 0 150.2 107"
   xml:space="preserve"
   inkscape:version="0.91 r13725"
   sodipodi:docname="cdc-logo.svg"
   width="150.2"
   height="107"><metadata
     id="metadata131"><rdf:RDF><cc:Work
         rdf:about=""><dc:format>image/svg+xml</dc:format><dc:type
           rdf:resource="http://purl.org/dc/dcmitype/StillImage" /><dc:title></dc:title></cc:Work></rdf:RDF></metadata><defs
     id="defs129" /><sodipodi:namedview
     pagecolor="#ffffff"
     bordercolor="#666666"
     borderopacity="1"
     objecttolerance="10"
     gridtolerance="10"
     guidetolerance="10"
     inkscape:pageopacity="0"
     inkscape:pageshadow="2"
     inkscape:window-width="1056"
     inkscape:window-height="670"
     id="namedview127"
     showgrid="false"
     fit-margin-top="0"
     fit-margin-left="0"
     fit-margin-right="0"
     fit-margin-bottom="0"
     inkscape:zoom="2.3838384"
     inkscape:cx="55.964709"
     inkscape:cy="72.755054"
     inkscape:window-x="0"
     inkscape:window-y="0"
     inkscape:window-maximized="0"
     inkscape:current-layer="Layer_1" /><style
     type="text/css"
     id="style3">
	.st0{fill:#FFFFFF;}
	.st1{fill:#0033A1;}
	.st2{fill:#FFFFFF;stroke:#FFFFFF;stroke-width:0.4463;}
</style><rect
     x="-2.3999939"
     y="-2.5"
     class="st0"
     width="148.3"
     height="112.3"
     id="rect5"
     style="fill:#ffffff" /><g
     id="g7"
     transform="translate(-131.5,-120.5)"><g
       id="g9"><rect
         x="131.5"
         y="120.5"
         class="st1"
         width="143.39999"
         height="86.400002"
         id="rect11"
         style="fill:#0033a1" /><g
         id="g13"><polygon
           class="st0"
           points="274.5,120.5 189.2,206.9 190.4,206.9 274.9,121.3 274.9,120.5 "
           id="polygon15"
           style="fill:#ffffff" /><polygon
           class="st0"
           points="136.3,206.9 137.2,206.9 142.9,120.5 142,120.5 "
           id="polygon17"
           style="fill:#ffffff" /><polygon
           class="st0"
           points="140.8,206.9 141.7,206.9 154.1,120.5 153.2,120.5 "
           id="polygon19"
           style="fill:#ffffff" /><polygon
           class="st0"
           points="145.7,206.9 146.6,206.9 165.9,120.5 165,120.5 "
           id="polygon21"
           style="fill:#ffffff" /><polygon
           class="st0"
           points="151,206.9 152,206.9 179.5,120.5 178.6,120.5 "
           id="polygon23"
           style="fill:#ffffff" /><polygon
           class="st0"
           points="156.1,206.9 157,206.9 192.4,120.5 191.5,120.5 "
           id="polygon25"
           style="fill:#ffffff" /><polygon
           class="st0"
           points="161.9,206.9 162.9,206.9 207.1,120.5 206.1,120.5 "
           id="polygon27"
           style="fill:#ffffff" /><polygon
           class="st0"
           points="171.9,206.9 229.2,120.5 228.2,120.5 170.9,206.9 "
           id="polygon29"
           style="fill:#ffffff" /><polygon
           class="st0"
           points="180,206.9 249.7,120.5 248.5,120.5 178.9,206.9 "
           id="polygon31"
           style="fill:#ffffff" /><polygon
           class="st0"
           points="207.3,206.9 274.9,153.2 274.9,152 205.8,206.9 "
           id="polygon33"
           style="fill:#ffffff" /><polygon
           class="st0"
           points="227,206.9 274.9,177 274.9,175.9 225.3,206.9 "
           id="polygon35"
           style="fill:#ffffff" /><polygon
           class="st0"
           points="258.8,206.9 274.9,199.4 274.9,198.4 256.7,206.9 "
           id="polygon37"
           style="fill:#ffffff" /></g><g
         id="g39"><path
           class="st2"
           d="m 163.6,180.6 c -14.9,0 -25,-9.2 -25,-24.1 0,-14.5 10.8,-24.7 25.2,-24.7 3.8,0 8,0.7 11.2,2.2 l 0,7.1 c -1.6,-2.1 -4.8,-5.8 -11.1,-5.8 -9,0 -14.1,8.2 -14.1,20.1 0,12.5 4.8,21.4 15,21.4 3.6,0 8.1,-1.8 10.1,-3.7 l 1.7,3.7 c -1.9,1.6 -5.5,3.8 -13,3.8 z"
           id="path41"
           inkscape:connector-curvature="0"
           style="fill:#ffffff;stroke:#ffffff;stroke-width:0.4463" /><path
           class="st2"
           d="m 212.4,156.2 c 0,18.4 -11.4,19.7 -20.1,19.7 l 0,-39.7 c 9,0 20.1,1.1 20.1,20 z m -11.8,23.5 c 9,0 22.9,-5.6 22.9,-23.7 0,-19.1 -13.7,-23.4 -24,-23.4 l -17.1,0 0,47.1 18.2,0 z"
           id="path43"
           inkscape:connector-curvature="0"
           style="fill:#ffffff;stroke:#ffffff;stroke-width:0.4463" /><path
           class="st2"
           d="m 254,180.6 c -14.9,0 -25,-9.2 -25,-24.1 0,-14.5 10.8,-24.7 25.2,-24.7 3.8,0 8,0.7 11.2,2.2 l 0,7.1 c -1.6,-2.1 -4.8,-5.8 -11.1,-5.8 -9,0 -14.1,8.2 -14.1,20.1 0,12.5 4.8,21.4 15,21.4 3.6,0 8.1,-1.8 10.1,-3.7 l 1.7,3.7 c -2,1.6 -5.6,3.8 -13,3.8 z"
           id="path45"
           inkscape:connector-curvature="0"
           style="fill:#ffffff;stroke:#ffffff;stroke-width:0.4463" /></g></g><g
       id="g47"><path
         class="st1"
         d="m 277.8,211.6 1.7,0 0,0.3 -0.7,0 0,1.9 -0.3,0 0,-1.9 -0.7,0 0,-0.3 z"
         id="path49"
         inkscape:connector-curvature="0"
         style="fill:#0033a1" /><path
         class="st1"
         d="m 281.5,213.7 0,-1.2 c 0,-0.1 0,-0.3 0,-0.5 l 0,0 -0.6,1.8 -0.3,0 -0.6,-1.8 0,0 c 0,0.2 0,0.5 0,0.5 l 0,1.2 -0.3,0 0,-2.1 0.4,0 0.6,1.8 0,0 0.6,-1.8 0.4,0 0,2.1 -0.2,0 z"
         id="path51"
         inkscape:connector-curvature="0"
         style="fill:#0033a1" /><path
         class="st1"
         d="m 137,213.9 -0.1,-0.1 c 0,0 0,-0.1 0,-0.1 0,-0.2 -0.8,-0.5 -1.6,-0.5 -0.8,0 -1.9,0.4 -1.9,1.4 0,1 1.1,1.4 1.9,1.4 0.4,0 1.7,-0.3 1.7,-0.6 0,-0.1 0,-0.1 -0.1,-0.2 l 0.1,-0.1 1,1.6 -0.1,0.1 c 0,-0.1 -0.1,-0.1 -0.1,-0.1 -0.2,0 -1.1,0.5 -2.6,0.5 -1.6,0 -3.3,-0.9 -3.3,-2.7 0,-1.8 1.7,-2.7 3.3,-2.7 0.8,0 1.4,0.1 1.8,0.2 0.4,0.1 0.6,0.2 0.7,0.2 0.1,0 0.1,0 0.2,-0.1 l 0.1,0 -1,1.8 z"
         id="path53"
         inkscape:connector-curvature="0"
         style="fill:#0033a1" /><path
         class="st1"
         d="m 145.1,216.3 c 0.1,0 0.2,-0.1 0.3,-0.3 l 0.1,0 0,1.3 -0.1,0 c -0.1,-0.2 -0.1,-0.2 -0.3,-0.2 l -4.5,0 0,-0.1 c 0.1,0 0.3,0 0.3,-0.2 l 0,-3.8 c 0,-0.1 -0.1,-0.2 -0.3,-0.2 l 0,-0.1 4.6,0 c 0.1,0 0.2,0 0.2,-0.2 l 0.1,0 0,1.3 -0.1,0 c 0,-0.2 -0.1,-0.2 -0.2,-0.2 l -2.9,0 0,0.8 1.9,0 c 0.1,0 0.2,0 0.2,-0.2 l 0.1,0 0,1.3 -0.1,0 c 0,-0.2 -0.1,-0.2 -0.2,-0.2 l -1.9,0 0,1 2.8,0 z"
         id="path55"
         inkscape:connector-curvature="0"
         style="fill:#0033a1" /><path
         class="st1"
         d="m 153.5,216.9 c 0,0.1 0.1,0.2 0.3,0.2 l 0,0.1 -1.9,0 0,-0.1 c 0.1,0 0.3,0 0.3,-0.1 0,-0.2 -1.3,-1.4 -2.4,-2.7 l 0,0 0,2.6 c 0,0.1 0.1,0.2 0.3,0.2 l 0,0.1 -1.7,0 0,-0.1 c 0.1,0 0.3,0 0.3,-0.2 l 0,-3.8 c 0,-0.1 -0.1,-0.2 -0.3,-0.2 l 0,-0.1 2.4,0 0,0.1 c -0.1,0 -0.2,0 -0.2,0.2 0,0.1 1,1.1 1.8,2 l 0,-2 c 0,-0.1 -0.1,-0.2 -0.3,-0.2 l 0,-0.1 1.8,0 0,0.1 c -0.2,0 -0.3,0 -0.3,0.2 l 0,3.8 z"
         id="path57"
         inkscape:connector-curvature="0"
         style="fill:#0033a1" /><path
         class="st1"
         d="m 160.8,212.8 c 0.1,0 0.2,0 0.2,-0.2 l 0.1,0 0,1.5 -0.1,0 c 0,-0.2 -0.1,-0.2 -0.2,-0.2 l -1.4,0 0,3.1 c 0,0.1 0.1,0.2 0.2,0.2 l 0,0.1 -1.8,0 0,-0.1 c 0.1,0 0.2,0 0.2,-0.2 l 0,-3.1 -1.4,0 c -0.1,0 -0.2,0 -0.2,0.2 l -0.1,0 0,-1.5 0.1,0 c 0,0.2 0.1,0.2 0.2,0.2 l 4.2,0 z"
         id="path59"
         inkscape:connector-curvature="0"
         style="fill:#0033a1" /><path
         class="st1"
         d="m 168,216.3 c 0.1,0 0.2,-0.1 0.3,-0.3 l 0.1,0 0,1.3 -0.1,0 c -0.1,-0.2 -0.1,-0.2 -0.3,-0.2 l -4.5,0 0,-0.1 c 0.1,0 0.3,0 0.3,-0.2 l 0,-3.8 c 0,-0.1 -0.1,-0.2 -0.3,-0.2 l 0,-0.1 4.6,0 c 0.1,0 0.2,0 0.2,-0.2 l 0.1,0 0,1.3 -0.1,0 c 0,-0.2 -0.1,-0.2 -0.2,-0.2 l -2.9,0 0,0.8 1.9,0 c 0.1,0 0.2,0 0.2,-0.2 l 0.1,0 0,1.3 -0.1,0 c 0,-0.2 -0.1,-0.2 -0.2,-0.2 l -1.9,0 0,1 2.8,0 z"
         id="path61"
         inkscape:connector-curvature="0"
         style="fill:#0033a1" /><path
         class="st1"
         d="m 172.8,213.6 1.4,0 c 0.6,0 0.8,0.2 0.8,0.5 0,0.4 -0.3,0.5 -0.7,0.5 l -1.4,0 0,-1 z m -1.3,3.3 c 0,0.1 -0.1,0.2 -0.2,0.2 l 0,0.1 1.7,0 0,-0.1 c -0.1,0 -0.3,0 -0.3,-0.2 l 0,-1.3 1,0 c 0.1,0.2 0.8,1.3 0.8,1.4 0,0.1 -0.2,0.1 -0.2,0.1 l 0,0.1 2,0 0,-0.1 c -0.1,0 -0.3,-0.1 -0.4,-0.2 l -0.9,-1.3 c 0.6,-0.2 1.1,-0.6 1.1,-1.4 0,-0.9 -0.7,-1.4 -1.6,-1.4 l -3.2,0 0,0.1 c 0.1,0 0.2,0 0.2,0.2 l 0,3.8 z"
         id="path63"
         inkscape:connector-curvature="0"
         style="fill:#0033a1" /><path
         class="st1"
         d="m 179,215.7 0.1,0.1 c 0,0 0,0.1 0,0.1 0,0.3 1.2,0.5 2,0.5 0.2,0 0.9,0 0.9,-0.4 0,-0.8 -3.3,0 -3.3,-1.7 0,-0.6 0.6,-1.5 2.2,-1.5 1,0 1.8,0.3 2,0.3 0.1,0 0.2,-0.1 0.2,-0.1 l 0.1,0 -0.6,1.3 -0.1,-0.1 c 0,0 0,-0.1 0,-0.1 0,-0.1 -0.7,-0.4 -1.4,-0.4 -0.3,0 -1.1,0 -1.1,0.4 0,0.7 3.3,0 3.3,1.7 0,0.8 -0.7,1.5 -2.2,1.5 -1,0 -2.1,-0.4 -2.2,-0.4 -0.1,0 -0.2,0.1 -0.2,0.1 l -0.1,0 0.4,-1.3 z"
         id="path65"
         inkscape:connector-curvature="0"
         style="fill:#0033a1" /><path
         class="st1"
         d="m 195.3,213.1 c 0,-0.1 -0.1,-0.2 -0.3,-0.2 l 0,-0.1 4.4,0 c 0.1,0 0.2,0 0.2,-0.2 l 0.1,0 0,1.4 -0.1,0 c 0,-0.2 -0.1,-0.2 -0.2,-0.2 l -2.7,0 0,0.9 1.8,0 c 0.1,0 0.2,0 0.2,-0.2 l 0.1,0 0,1.3 -0.1,0 c 0,-0.2 -0.1,-0.2 -0.2,-0.2 l -1.8,0 0,1.4 c 0,0.1 0.1,0.2 0.3,0.2 l 0,0.1 -2,0 0,-0.1 c 0.2,0 0.3,0 0.3,-0.2 l 0,-3.9 z"
         id="path67"
         inkscape:connector-curvature="0"
         style="fill:#0033a1" /><path
         class="st1"
         d="m 204.5,213.8 c 0.8,0 1.4,0.5 1.4,1.2 0,0.7 -0.6,1.2 -1.4,1.2 -0.8,0 -1.4,-0.5 -1.4,-1.2 0.1,-0.7 0.7,-1.2 1.4,-1.2 z m 0,-1.1 c -1.3,0 -2.7,0.7 -2.7,2.3 0,1.6 1.4,2.3 2.7,2.3 1.3,0 2.7,-0.7 2.7,-2.3 0,-1.6 -1.4,-2.3 -2.7,-2.3 z"
         id="path69"
         inkscape:connector-curvature="0"
         style="fill:#0033a1" /><path
         class="st1"
         d="m 211.3,213.6 1.4,0 c 0.6,0 0.8,0.2 0.8,0.5 0,0.4 -0.3,0.5 -0.7,0.5 l -1.4,0 0,-1 z m -1.3,3.3 c 0,0.1 -0.1,0.2 -0.2,0.2 l 0,0.1 1.7,0 0,-0.1 c -0.1,0 -0.3,0 -0.3,-0.2 l 0,-1.3 1,0 c 0.1,0.2 0.8,1.3 0.8,1.4 0,0.1 -0.2,0.1 -0.2,0.1 l 0,0.1 2,0 0,-0.1 c -0.1,0 -0.3,-0.1 -0.4,-0.2 l -0.9,-1.3 c 0.6,-0.2 1.1,-0.6 1.1,-1.4 0,-0.9 -0.7,-1.4 -1.7,-1.4 l -3.2,0 0,0.1 c 0.1,0 0.2,0 0.2,0.2 l 0,3.8 z"
         id="path71"
         inkscape:connector-curvature="0"
         style="fill:#0033a1" /><path
         class="st1"
         d="m 228.5,213.1 1.3,0 c 1.1,0 1.5,0.6 1.5,1.5 0,0.9 -0.4,1.5 -1.5,1.5 l -1.3,0 0,-3 z m -1.5,3.8 c 0,0.1 0,0.2 -0.3,0.2 l 0,0.1 3.2,0 c 1.9,0 2.8,-1.3 2.8,-2.6 0,-1.5 -0.9,-2.6 -2.7,-2.6 l -3.3,0 0,0.1 c 0.3,0 0.3,0.1 0.3,0.2 l 0,4.6 z"
         id="path73"
         inkscape:connector-curvature="0"
         style="fill:#0033a1" /><path
         class="st1"
         d="m 237.3,212.8 0,0.1 c -0.2,0 -0.3,0 -0.3,0.2 l 0,3.8 c 0,0.1 0.1,0.2 0.3,0.2 l 0,0.1 -2,0 0,-0.1 c 0.2,0 0.3,0 0.3,-0.2 l 0,-3.8 c 0,-0.1 -0.1,-0.2 -0.3,-0.2 l 0,-0.1 2,0 z"
         id="path75"
         inkscape:connector-curvature="0"
         style="fill:#0033a1" /><path
         class="st1"
         d="m 240.2,215.7 0.1,0.1 c 0,0 0,0.1 0,0.1 0,0.3 1.2,0.5 2,0.5 0.3,0 0.9,0 0.9,-0.4 0,-0.8 -3.3,0 -3.3,-1.7 0,-0.6 0.6,-1.5 2.2,-1.5 1,0 1.8,0.3 2,0.3 0.1,0 0.2,-0.1 0.2,-0.1 l 0.1,0 -0.6,1.3 -0.1,-0.1 c 0,0 0,-0.1 0,-0.1 0,-0.1 -0.7,-0.4 -1.4,-0.4 -0.3,0 -1.1,0 -1.1,0.4 0,0.7 3.3,0 3.3,1.7 0,0.8 -0.7,1.5 -2.2,1.5 -1,0 -2.1,-0.4 -2.2,-0.4 -0.1,0 -0.2,0.1 -0.2,0.1 l -0.1,0 0.4,-1.3 z"
         id="path77"
         inkscape:connector-curvature="0"
         style="fill:#0033a1" /><path
         class="st1"
         d="m 251.6,216.3 c 0.1,0 0.2,-0.1 0.3,-0.3 l 0.1,0 0,1.3 -0.1,0 c -0.1,-0.2 -0.1,-0.2 -0.3,-0.2 l -4.5,0 0,-0.1 c 0.1,0 0.3,0 0.3,-0.2 l 0,-3.8 c 0,-0.1 -0.1,-0.2 -0.3,-0.2 l 0,-0.1 4.6,0 c 0.1,0 0.2,0 0.2,-0.2 l 0.1,0 0,1.3 -0.1,0 c 0,-0.2 -0.1,-0.2 -0.2,-0.2 l -2.9,0 0,0.8 1.9,0 c 0.1,0 0.2,0 0.2,-0.2 l 0.1,0 0,1.3 -0.1,0 c 0,-0.2 -0.1,-0.2 -0.2,-0.2 l -1.9,0 0,1 2.8,0 z"
         id="path79"
         inkscape:connector-curvature="0"
         style="fill:#0033a1" /><path
         class="st1"
         d="m 256.6,215.6 0.8,-1.8 0.8,1.8 -1.6,0 z m 3.8,1.6 0,-0.1 c -0.1,0 -0.2,0 -0.2,-0.1 -0.4,-1 -1.9,-3.9 -1.9,-4 0,-0.1 0,-0.1 0.1,-0.1 l 0,-0.1 -2.1,0 0,0.1 c 0.1,0 0.1,0 0.1,0.1 0,0.1 -0.9,2.1 -1.7,4 0,0.1 -0.1,0.1 -0.2,0.1 l 0,0.1 1.5,0 0,-0.1 c 0,0 -0.1,0 -0.1,-0.1 0,-0.1 0.2,-0.5 0.3,-0.7 l 2.3,0 c 0.1,0.2 0.3,0.6 0.3,0.7 0,0.1 -0.1,0.1 -0.1,0.1 l 0,0.1 1.7,0 z"
         id="path81"
         inkscape:connector-curvature="0"
         style="fill:#0033a1" /><path
         class="st1"
         d="m 263.2,215.7 0.1,0.1 c 0,0 0,0.1 0,0.1 0,0.3 1.2,0.5 2,0.5 0.3,0 0.9,0 0.9,-0.4 0,-0.8 -3.3,0 -3.3,-1.7 0,-0.6 0.6,-1.5 2.2,-1.5 1,0 1.8,0.3 2,0.3 0.1,0 0.2,-0.1 0.2,-0.1 l 0.1,0 -0.6,1.3 -0.1,-0.1 c 0,0 0,-0.1 0,-0.1 0,-0.1 -0.7,-0.4 -1.4,-0.4 -0.3,0 -1.1,0 -1.1,0.4 0,0.7 3.3,0 3.3,1.7 0,0.8 -0.7,1.5 -2.2,1.5 -1,0 -2.1,-0.4 -2.2,-0.4 -0.1,0 -0.2,0.1 -0.2,0.1 l -0.1,0 0.4,-1.3 z"
         id="path83"
         inkscape:connector-curvature="0"
         style="fill:#0033a1" /><path
         class="st1"
         d="m 274.5,216.3 c 0.1,0 0.2,-0.1 0.3,-0.3 l 0.1,0 0,1.3 -0.1,0 c -0.1,-0.2 -0.1,-0.2 -0.3,-0.2 l -4.5,0 0,-0.1 c 0.1,0 0.3,0 0.3,-0.2 l 0,-3.8 c 0,-0.1 -0.1,-0.2 -0.3,-0.2 l 0,-0.1 4.6,0 c 0.1,0 0.2,0 0.2,-0.2 l 0.1,0 0,1.3 -0.1,0 c 0,-0.2 -0.1,-0.2 -0.2,-0.2 l -2.9,0 0,0.8 1.9,0 c 0.1,0 0.2,0 0.2,-0.2 l 0.1,0 0,1.3 -0.1,0 c 0,-0.2 -0.1,-0.2 -0.2,-0.2 l -1.9,0 0,1 2.8,0 z"
         id="path85"
         inkscape:connector-curvature="0"
         style="fill:#0033a1" /><path
         class="st1"
         d="m 136.9,223.9 -0.1,-0.1 c 0,0 0,-0.1 0,-0.2 0,-0.2 -0.8,-0.5 -1.6,-0.5 -0.8,0 -1.9,0.4 -1.9,1.4 0,1 1.1,1.4 1.9,1.4 0.4,0 1.7,-0.3 1.7,-0.6 0,-0.1 0,-0.1 -0.1,-0.2 l 0.1,-0.1 1,1.6 -0.1,0.1 c 0,-0.1 -0.1,-0.1 -0.1,-0.1 -0.2,0 -1.1,0.5 -2.6,0.5 -1.6,0 -3.3,-0.9 -3.3,-2.7 0,-1.8 1.7,-2.7 3.3,-2.7 0.8,0 1.4,0.1 1.8,0.2 0.4,0.1 0.6,0.2 0.7,0.2 0.1,0 0.1,0 0.2,-0.1 l 0.1,0 -1,1.9 z"
         id="path87"
         inkscape:connector-curvature="0"
         style="fill:#0033a1" /><path
         class="st1"
         d="m 142.2,223.9 c 0.8,0 1.4,0.5 1.4,1.2 0,0.7 -0.6,1.2 -1.4,1.2 -0.8,0 -1.4,-0.5 -1.4,-1.2 0,-0.8 0.7,-1.2 1.4,-1.2 z m 0,-1.1 c -1.3,0 -2.7,0.7 -2.7,2.3 0,1.6 1.4,2.3 2.7,2.3 1.3,0 2.7,-0.7 2.7,-2.3 0,-1.6 -1.4,-2.3 -2.7,-2.3 z"
         id="path89"
         inkscape:connector-curvature="0"
         style="fill:#0033a1" /><path
         class="st1"
         d="m 151.9,227 c 0,0.1 0.1,0.2 0.3,0.2 l 0,0.1 -1.9,0 0,-0.1 c 0.1,0 0.3,0 0.3,-0.1 0,-0.2 -1.3,-1.4 -2.4,-2.7 l 0,0 0,2.6 c 0,0.1 0.1,0.2 0.3,0.2 l 0,0.1 -1.7,0 0,-0.1 c 0.1,0 0.3,0 0.3,-0.2 l 0,-3.8 c 0,-0.1 -0.1,-0.2 -0.3,-0.2 l 0,-0.1 2.4,0 0,0.1 c -0.1,0 -0.2,0 -0.2,0.2 0,0.1 1,1.1 1.8,2 l 0,-2 c 0,-0.1 -0.1,-0.2 -0.3,-0.2 l 0,-0.1 1.8,0 0,0.1 c -0.2,0 -0.3,0 -0.3,0.2 l 0,3.8 z"
         id="path91"
         inkscape:connector-curvature="0"
         style="fill:#0033a1" /><path
         class="st1"
         d="m 158.4,222.8 c 0.1,0 0.2,0 0.2,-0.2 l 0.1,0 0,1.5 -0.1,0 c 0,-0.2 -0.1,-0.2 -0.2,-0.2 l -1.4,0 0,3.1 c 0,0.1 0.1,0.2 0.2,0.2 l 0,0.1 -1.8,0 0,-0.1 c 0.1,0 0.2,0 0.2,-0.2 l 0,-3.1 -1.4,0 c -0.1,0 -0.2,0 -0.2,0.2 l -0.1,0 0,-1.5 0.1,0 c 0,0.2 0.1,0.2 0.2,0.2 l 4.2,0 z"
         id="path93"
         inkscape:connector-curvature="0"
         style="fill:#0033a1" /><path
         class="st1"
         d="m 162.1,223.7 1.4,0 c 0.6,0 0.8,0.2 0.8,0.5 0,0.4 -0.3,0.5 -0.7,0.5 l -1.4,0 0,-1 z m -1.3,3.3 c 0,0.1 -0.1,0.2 -0.2,0.2 l 0,0.1 1.7,0 0,-0.1 c -0.1,0 -0.3,0 -0.3,-0.2 l 0,-1.3 1,0 c 0.1,0.2 0.8,1.3 0.8,1.4 0,0.1 -0.2,0.1 -0.2,0.1 l 0,0.1 2,0 0,-0.1 c -0.1,0 -0.3,-0.1 -0.4,-0.2 l -0.9,-1.3 c 0.6,-0.2 1.1,-0.6 1.1,-1.4 0,-0.9 -0.7,-1.4 -1.6,-1.4 l -3.2,0 0,0.1 c 0.1,0 0.2,0 0.2,0.2 l 0,3.8 z"
         id="path95"
         inkscape:connector-curvature="0"
         style="fill:#0033a1" /><path
         class="st1"
         d="m 169.9,223.9 c 0.8,0 1.4,0.5 1.4,1.2 0,0.7 -0.6,1.2 -1.4,1.2 -0.8,0 -1.4,-0.5 -1.4,-1.2 0,-0.8 0.6,-1.2 1.4,-1.2 z m 0,-1.1 c -1.3,0 -2.7,0.7 -2.7,2.3 0,1.6 1.4,2.3 2.7,2.3 1.3,0 2.7,-0.7 2.7,-2.3 0,-1.6 -1.5,-2.3 -2.7,-2.3 z"
         id="path97"
         inkscape:connector-curvature="0"
         style="fill:#0033a1" /><path
         class="st1"
         d="m 174.6,223.2 c 0,-0.1 -0.1,-0.2 -0.3,-0.2 l 0,-0.1 1.9,0 0,0.1 c -0.1,0 -0.3,0 -0.3,0.2 l 0,3.1 2.8,0 c 0.1,0 0.2,0 0.2,-0.3 l 0.1,0 0,1.5 -0.1,0 c 0,-0.2 -0.1,-0.2 -0.2,-0.2 l -4.4,0 0,-0.1 c 0.2,0 0.3,0 0.3,-0.2 l 0,-3.8 z"
         id="path99"
         inkscape:connector-curvature="0"
         style="fill:#0033a1" /><path
         class="st1"
         d="m 186.3,225.7 0.8,-1.8 0.8,1.8 -1.6,0 z m 3.8,1.6 0,-0.1 c -0.1,0 -0.2,0 -0.2,-0.1 -0.4,-1 -1.9,-3.9 -1.9,-4 0,-0.1 0,-0.1 0.1,-0.1 l 0,-0.1 -2.1,0 0,0.1 c 0.1,0 0.1,0 0.1,0.1 0,0.1 -0.9,2.1 -1.7,4 0,0.1 -0.1,0.1 -0.2,0.1 l 0,0.1 1.5,0 0,-0.1 c 0,0 -0.1,0 -0.1,-0.1 0,-0.1 0.2,-0.5 0.3,-0.7 l 2.3,0 c 0.1,0.2 0.3,0.6 0.3,0.7 0,0.1 -0.1,0.1 -0.1,0.1 l 0,0.1 1.7,0 z"
         id="path101"
         inkscape:connector-curvature="0"
         style="fill:#0033a1" /><path
         class="st1"
         d="m 197.2,227 c 0,0.1 0.1,0.2 0.3,0.2 l 0,0.1 -1.9,0 0,-0.1 c 0.1,0 0.3,0 0.3,-0.1 0,-0.2 -1.3,-1.4 -2.4,-2.7 l 0,0 0,2.6 c 0,0.1 0.1,0.2 0.3,0.2 l 0,0.1 -1.8,0 0,-0.1 c 0.1,0 0.3,0 0.3,-0.2 l 0,-3.8 c 0,-0.1 -0.1,-0.2 -0.3,-0.2 l 0,-0.1 2.4,0 0,0.1 c -0.1,0 -0.2,0 -0.2,0.2 0,0.1 1,1.1 1.8,2 l 0,-2 c 0,-0.1 -0.1,-0.2 -0.3,-0.2 l 0,-0.1 1.8,0 0,0.1 c -0.2,0 -0.3,0 -0.3,0.2 l 0,3.8 z"
         id="path103"
         inkscape:connector-curvature="0"
         style="fill:#0033a1" /><path
         class="st1"
         d="m 201.1,223.8 0.7,0 c 1,0 1.5,0.3 1.5,1.2 0,0.9 -0.4,1.2 -1.5,1.2 l -0.7,0 0,-2.4 z m -1.4,3.2 c 0,0.1 -0.1,0.2 -0.3,0.2 l 0,0.1 3,0 c 1.5,0 2.1,-1 2.1,-2.2 0,-1.2 -0.6,-2.2 -2.1,-2.2 l -3,0 0,0.1 c 0.1,0 0.3,0 0.3,0.2 l 0,3.8 z"
         id="path105"
         inkscape:connector-curvature="0"
         style="fill:#0033a1" /><path
         class="st1"
         d="m 212.2,223.1 1.5,0 c 0.5,0 0.8,0.2 0.8,0.6 0,0.4 -0.3,0.6 -0.8,0.6 l -1.5,0 0,-1.2 z m 0,2.2 1.8,0 c 1.3,0 1.9,-0.8 1.9,-1.7 0,-0.9 -0.7,-1.7 -1.9,-1.7 l -3.6,0 0,0.1 c 0.3,0 0.3,0.1 0.3,0.2 l 0,4.7 c 0,0.1 0,0.2 -0.3,0.2 l 0,0.1 2.1,0 0,-0.1 c -0.3,0 -0.3,-0.1 -0.3,-0.2 l 0,-1.6 z"
         id="path107"
         inkscape:connector-curvature="0"
         style="fill:#0033a1" /><path
         class="st1"
         d="m 219.3,223.7 1.4,0 c 0.6,0 0.8,0.2 0.8,0.5 0,0.4 -0.3,0.5 -0.7,0.5 l -1.4,0 0,-1 z M 218,227 c 0,0.1 -0.1,0.2 -0.2,0.2 l 0,0.1 1.7,0 0,-0.1 c -0.1,0 -0.3,0 -0.3,-0.2 l 0,-1.3 1,0 c 0.1,0.2 0.8,1.3 0.8,1.4 0,0.1 -0.2,0.1 -0.2,0.1 l 0,0.1 2,0 0,-0.1 c -0.1,0 -0.3,-0.1 -0.4,-0.2 l -0.9,-1.3 c 0.6,-0.2 1.1,-0.6 1.1,-1.4 0,-0.9 -0.7,-1.4 -1.6,-1.4 l -3.2,0 0,0.1 c 0.1,0 0.2,0 0.2,0.2 l 0,3.8 z"
         id="path109"
         inkscape:connector-curvature="0"
         style="fill:#0033a1" /><path
         class="st1"
         d="m 229.1,226.4 c 0.1,0 0.2,-0.1 0.3,-0.2 l 0.1,0 0,1.3 -0.1,0 c -0.1,-0.2 -0.1,-0.2 -0.3,-0.2 l -4.5,0 0,-0.1 c 0.1,0 0.3,0 0.3,-0.2 l 0,-3.8 c 0,-0.1 -0.1,-0.2 -0.3,-0.2 l 0,-0.1 4.6,0 c 0.1,0 0.2,0 0.2,-0.2 l 0.1,0 0,1.3 -0.1,0 c 0,-0.2 -0.1,-0.2 -0.2,-0.2 l -2.9,0 0,0.8 1.9,0 c 0.1,0 0.2,0 0.2,-0.2 l 0.1,0 0,1.3 -0.1,0 c 0,-0.2 -0.1,-0.2 -0.2,-0.2 l -1.9,0 0,1 2.8,0 z"
         id="path111"
         inkscape:connector-curvature="0"
         style="fill:#0033a1" /><path
         class="st1"
         d="m 231.1,222.8 1.9,0 0,0.1 c -0.1,0 -0.3,0 -0.3,0.1 0,0.1 0.8,2.3 0.9,2.6 l 0,0 c 0.4,-0.9 1,-2.5 1,-2.6 0,-0.1 -0.2,-0.1 -0.2,-0.1 l 0,-0.1 1.7,0 0,0.1 c -0.1,0 -0.2,0 -0.2,0.1 -0.1,0.4 -1.6,3.8 -1.6,3.9 0,0.1 0.1,0.2 0.2,0.2 l 0,0.1 -2.1,0 0,-0.1 c 0.1,0 0.2,-0.1 0.2,-0.2 0,0 -1.3,-3.9 -1.4,-4 -0.1,0 -0.1,0 -0.2,0 l 0,-0.1 z"
         id="path113"
         inkscape:connector-curvature="0"
         style="fill:#0033a1" /><path
         class="st1"
         d="m 242.3,226.4 c 0.1,0 0.2,-0.1 0.3,-0.2 l 0.1,0 0,1.3 -0.1,0 c -0.1,-0.2 -0.1,-0.2 -0.3,-0.2 l -4.5,0 0,-0.1 c 0.1,0 0.3,0 0.3,-0.2 l 0,-3.8 c 0,-0.1 -0.1,-0.2 -0.3,-0.2 l 0,-0.1 4.6,0 c 0.1,0 0.2,0 0.2,-0.2 l 0.1,0 0,1.3 -0.1,0 c 0,-0.2 -0.1,-0.2 -0.2,-0.2 l -2.9,0 0,0.8 1.9,0 c 0.1,0 0.2,0 0.2,-0.2 l 0.1,0 0,1.3 -0.1,0 c 0,-0.2 -0.1,-0.2 -0.2,-0.2 l -1.9,0 0,1 2.8,0 z"
         id="path115"
         inkscape:connector-curvature="0"
         style="fill:#0033a1" /><path
         class="st1"
         d="m 250,227 c 0,0.1 0.1,0.2 0.3,0.2 l 0,0.1 -1.9,0 0,-0.1 c 0.1,0 0.3,0 0.3,-0.1 0,-0.2 -1.3,-1.4 -2.4,-2.7 l 0,0 0,2.6 c 0,0.1 0.1,0.2 0.3,0.2 l 0,0.1 -1.7,0 0,-0.1 c 0.1,0 0.3,0 0.3,-0.2 l 0,-3.8 c 0,-0.1 -0.1,-0.2 -0.3,-0.2 l 0,-0.1 2.4,0 0,0.1 c -0.1,0 -0.2,0 -0.2,0.2 0,0.1 1,1.1 1.8,2 l 0,-2 c 0,-0.1 -0.1,-0.2 -0.3,-0.2 l 0,-0.1 1.8,0 0,0.1 c -0.2,0 -0.3,0 -0.3,0.2 l 0,3.8 z"
         id="path117"
         inkscape:connector-curvature="0"
         style="fill:#0033a1" /><path
         class="st1"
         d="m 256.5,222.8 c 0.1,0 0.2,0 0.2,-0.2 l 0.1,0 0,1.5 -0.1,0 c 0,-0.2 -0.1,-0.2 -0.2,-0.2 l -1.4,0 0,3.1 c 0,0.1 0.1,0.2 0.2,0.2 l 0,0.1 -1.8,0 0,-0.1 c 0.1,0 0.2,0 0.2,-0.2 l 0,-3.1 -1.4,0 c -0.1,0 -0.2,0 -0.2,0.2 l -0.1,0 0,-1.5 0.1,0 c 0,0.2 0.1,0.2 0.2,0.2 l 4.2,0 z"
         id="path119"
         inkscape:connector-curvature="0"
         style="fill:#0033a1" /><path
         class="st1"
         d="m 260.7,222.8 0,0.1 c -0.2,0 -0.3,0 -0.3,0.2 l 0,3.8 c 0,0.1 0.1,0.2 0.3,0.2 l 0,0.1 -2,0 0,-0.1 c 0.2,0 0.3,0 0.3,-0.2 l 0,-3.8 c 0,-0.1 -0.1,-0.2 -0.3,-0.2 l 0,-0.1 2,0 z"
         id="path121"
         inkscape:connector-curvature="0"
         style="fill:#0033a1" /><path
         class="st1"
         d="m 265.2,223.9 c 0.8,0 1.4,0.5 1.4,1.2 0,0.7 -0.6,1.2 -1.4,1.2 -0.8,0 -1.4,-0.5 -1.4,-1.2 0,-0.8 0.6,-1.2 1.4,-1.2 z m 0,-1.1 c -1.3,0 -2.7,0.7 -2.7,2.3 0,1.6 1.4,2.3 2.7,2.3 1.3,0 2.7,-0.7 2.7,-2.3 0,-1.6 -1.5,-2.3 -2.7,-2.3 z"
         id="path123"
         inkscape:connector-curvature="0"
         style="fill:#0033a1" /><path
         class="st1"
         d="m 274.8,227 c 0,0.1 0.1,0.2 0.3,0.2 l 0,0.1 -1.9,0 0,-0.1 c 0.1,0 0.3,0 0.3,-0.1 0,-0.2 -1.3,-1.4 -2.4,-2.7 l 0,0 0,2.6 c 0,0.1 0.1,0.2 0.3,0.2 l 0,0.1 -1.7,0 0,-0.1 c 0.1,0 0.3,0 0.3,-0.2 l 0,-3.8 c 0,-0.1 -0.1,-0.2 -0.3,-0.2 l 0,-0.1 2.4,0 0,0.1 c -0.1,0 -0.2,0 -0.2,0.2 0,0.1 1,1.1 1.8,2 l 0,-2 c 0,-0.1 -0.1,-0.2 -0.3,-0.2 l 0,-0.1 1.8,0 0,0.1 c -0.2,0 -0.3,0 -0.3,0.2 l 0,3.8 z"
         id="path125"
         inkscape:connector-curvature="0"
         style="fill:#0033a1" /></g></g></svg>