<?xml version="1.0" encoding="UTF-8"?>
<svg width="27px" height="33px" viewBox="0 0 27 33" version="1.1" xmlns="http://www.w3.org/2000/svg" xmlns:xlink="http://www.w3.org/1999/xlink">
    <!-- Generator: sketchtool 51.2 (57519) - http://www.bohemiancoding.com/sketch -->
    <title>0E8D7414-36F5-4D74-9A94-EA5CA0892A58-8417-0000804D84086F68</title>
    <desc>Created with sketchtool.</desc>
    <defs></defs>
    <g id="public-website" stroke="none" stroke-width="1" fill="none" fill-rule="evenodd">
        <g id="01.10_medfinder-public-website_faq" transform="translate(-611.000000, -267.000000)" fill="#0F67A2">
            <g id="section-/-faq" transform="translate(0.000000, 88.000000)">
                <g id="faq" transform="translate(100.000000, 68.000000)">
                    <g id="tile-2" transform="translate(480.000000, 81.000000)">
                        <g id="Group-2" transform="translate(31.000000, 26.000000)">
                            <g id="illu-/-faq">
                                <path d="M19.839832,6.59207875 C19.839832,7.31545319 19.5819662,7.9350007 19.0662271,8.45073988 C18.5504879,8.96647905 17.944336,9.22434478 17.2477532,9.22434478 C16.4975871,9.22434478 15.8713418,8.96647905 15.3689985,8.45073988 C14.8666551,7.9350007 14.6154872,7.31545319 14.6154872,6.59207875 C14.6154872,5.89549597 14.8666551,5.28934408 15.3689985,4.7736049 C15.8713418,4.25786572 16.4975871,4 17.2477532,4 C17.7300028,4 18.1687095,4.11721169 18.5638862,4.35163859 C18.959063,4.58606549 19.2705112,4.89416479 19.4982402,5.27594574 C19.7259692,5.65772669 19.839832,6.09643331 19.839832,6.59207875 Z M18.3529031,25.0512529 C17.830466,26.2166895 17.013333,27.4088998 15.9014798,28.6279197 C14.7896265,29.8469396 13.3964818,30.4564404 11.7220039,30.4564404 C10.5967548,30.4564404 9.75283064,30.1784812 9.19020608,29.6225546 C8.62758152,29.0666279 8.34627346,28.4068936 8.34627346,27.6433317 C8.34627346,26.8663739 8.59409247,25.7880264 9.08973791,24.4082566 L11.6818167,17.3152039 C11.9363373,16.6722044 12.0635957,16.2368467 12.0635957,16.0091177 C12.0635957,15.8617637 12.0033154,15.7278074 11.882753,15.607245 C11.7621906,15.4866826 11.6282344,15.4264023 11.4808803,15.4264023 C11.0254224,15.4264023 10.5264354,15.7813863 9.98390461,16.4913649 C9.44137379,17.2013435 9.03615623,17.8376356 8.76823977,18.4002601 L7,18.4002601 C7.79035355,16.6320115 8.81846753,15.2623092 10.0843728,14.291112 C11.350278,13.3199149 12.6128154,12.8343236 13.8720227,12.8343236 C14.756147,12.8343236 15.4895573,13.0520024 16.0722756,13.4873667 C16.6549939,13.9227309 16.9463487,14.5020916 16.9463487,15.225466 C16.9463487,15.9890279 16.7989969,16.7592762 16.5042888,17.5362339 L13.3696819,25.9554664 C13.1553487,26.5314868 13.0481838,27.0003336 13.0481838,27.3620208 C13.0481838,27.5227707 13.111813,27.6801692 13.2390733,27.8342212 C13.3663336,27.9882731 13.5036387,28.065298 13.6509928,28.065298 C14.0528675,28.065298 14.4681317,27.850968 14.8967981,27.4223017 C15.3254644,26.9936354 15.8612893,26.2032937 16.5042888,25.0512529 L18.3529031,25.0512529 Z M25,35 L25,5 L27,5 L27,36 C27,36.5522847 26.6100545,37 26.1290323,37 L0.870967742,37 C0.38994554,37 5.89082299e-17,36.5522847 0,36 L0,6 C-5.89082299e-17,5.44771525 0.38994554,5 0.870967742,5 L8.99334227,5 C8.99334227,6.1045695 8.09791177,7 6.99334227,7 L2,7 L2,35 L25,35 Z" id="Combined-Shape"></path>
                            </g>
                        </g>
                    </g>
                </g>
            </g>
        </g>
    </g>
</svg>