<?xml version="1.0" encoding="UTF-8"?>
<svg width="24px" height="34px" viewBox="0 0 24 34" version="1.1" xmlns="http://www.w3.org/2000/svg" xmlns:xlink="http://www.w3.org/1999/xlink">
    <!-- Generator: sketchtool 51.2 (57519) - http://www.bohemiancoding.com/sketch -->
    <title>C084B8C7-CA3B-42D3-955F-F4AF4FC374DD-8417-0000804D84094615</title>
    <desc>Created with sketchtool.</desc>
    <defs></defs>
    <g id="public-website" stroke="none" stroke-width="1" fill="none" fill-rule="evenodd">
        <g id="01.10_medfinder-public-website_faq" transform="translate(-131.000000, -266.000000)" fill="#0F67A2" fill-rule="nonzero">
            <g id="section-/-faq" transform="translate(0.000000, 88.000000)">
                <g id="faq" transform="translate(100.000000, 68.000000)">
                    <g id="tile-1" transform="translate(0.000000, 81.000000)">
                        <g id="Group" transform="translate(31.000000, 26.000000)">
                            <g id="illu-/-info">
                                <path d="M18,23 L18,19 L16,19 L16,23 L12,23 L12,25 L16,25 L16,29 L18,29 L18,25 L22,25 L22,23 L18,23 Z M19.2154005,7 L4.68344611,7 C4.37592507,8.36951854 3.71435481,9.85775719 3.13694431,10.7722038 C2.3934044,11.94975 2,13.626731 2,16.160646 L2,35.2710527 L22.0000504,35.2710527 L22.0000504,32 L10,32 C9.44771525,32 9,31.5522847 9,31 L9,17 C9,16.4477153 9.44771525,16 10,16 L21.996189,16 C21.9389966,14.7116149 21.2588025,11.5286214 20.7814131,10.7159164 C20.2737134,9.85161122 19.5013787,8.38596981 19.2154005,7 Z M2.40766391,7 L1,7 L1,4 C1,3.44771525 1.44771525,3 2,3 L22,3 C22.5522847,3 23,3.44771525 23,4 L23,7 L21.6429009,7 C21.8707605,7.9987743 22.1550847,8.78801694 22.4958736,9.36772793 C23.3169219,10.7644013 24.0000504,14.7001462 24.0000504,15.8606222 L24.0000504,35.9781676 C24.0000504,36.54251 23.5523351,37 23.0000504,37 L1,37 C0.44771525,37 1.11022302e-16,36.54251 0,35.9781676 L5.06261699e-14,15.8606222 C-1.62825309e-12,12.8201873 0.536035516,10.8247829 1.456774,9.36772793 C1.84528078,8.75292176 2.16224408,7.96367912 2.40766391,7 Z" id="Combined-Shape"></path>
                            </g>
                        </g>
                    </g>
                </g>
            </g>
        </g>
    </g>
</svg>