<?xml version="1.0" encoding="UTF-8"?>
<svg width="36px" height="36px" viewBox="0 0 36 36" version="1.1" xmlns="http://www.w3.org/2000/svg" xmlns:xlink="http://www.w3.org/1999/xlink">
    <!-- Generator: sketchtool 51.2 (57519) - http://www.bohemiancoding.com/sketch -->
    <title>93BB6BE8-D6F9-4E30-84D0-8DC7FF998EB2-8417-0000804D8407AB55</title>
    <desc>Created with sketchtool.</desc>
    <defs></defs>
    <g id="public-website" stroke="none" stroke-width="1" fill="none" fill-rule="evenodd">
        <g id="01.10_medfinder-public-website_faq" transform="translate(-1090.000000, -265.000000)" fill="#0F67A2" fill-rule="nonzero">
            <g id="section-/-faq" transform="translate(0.000000, 88.000000)">
                <g id="faq" transform="translate(100.000000, 68.000000)">
                    <g id="tile-3" transform="translate(960.000000, 81.000000)">
                        <g id="illu-/-where" transform="translate(30.000000, 26.000000)">
                            <path d="M17.7578305,26.2419565 L31.8608211,26.2419565 L31.8608211,17.5194101 L28.4056561,17.5194101 L28.4056561,19.6117716 C28.4056561,20.0888303 28.0189236,20.4755628 27.5418649,20.4755628 C27.0648062,20.4755628 26.6780737,20.0888303 26.6780737,19.6117716 L26.6780737,17.5194101 L23.2229088,17.5194101 L23.2229088,19.6117716 C23.2229088,20.0888303 22.8361763,20.4755628 22.3591175,20.4755628 C21.8820588,20.4755628 21.4953263,20.0888303 21.4953263,19.6117716 L21.4953263,17.5194101 L18.0401614,17.5194101 L18.0401614,19.6117716 C18.0401614,20.0888303 17.6534289,20.4755628 17.1763702,20.4755628 C16.6993114,20.4755628 16.3125789,20.0888303 16.3125789,19.6117716 L16.3125789,17.5194101 L9.09531033,17.5194101 L10.1779689,18.6020687 L10.2660403,18.6020687 L10.2660403,18.6901401 L17.5833734,26.0074732 C17.6544687,26.0785685 17.7126211,26.1577056 17.7578305,26.2419565 Z M4.21950172,25.1592979 L4.19060163,25.1592979 C2.97300727,24.3959403 2.18933036,23.6255307 1.83957091,22.8480691 L-5.51447209,22.8480691 L-6.14599303,21.9549369 L-5.51447209,20.9745751 L1.83190155,20.9745751 C2.17779206,20.1848107 2.96402543,19.3939753 4.19060163,18.6020687 L4.21950172,18.6020687 L4.21950172,16.6556189 C4.21950172,16.1785602 4.60623423,15.7918277 5.08329295,15.7918277 L32.7246123,15.7918277 C33.201671,15.7918277 33.5884035,16.1785602 33.5884035,16.6556189 L33.5884035,17.6653217 L36.1797772,17.6653217 L36.1797772,16.6556189 C36.1797772,16.1785602 36.5665097,15.7918277 37.0435684,15.7918277 C37.5206272,15.7918277 37.9073597,16.1785602 37.9073597,16.6556189 L37.9073597,27.1057477 C37.9073597,27.5828064 37.5206272,27.9695389 37.0435684,27.9695389 C36.5665097,27.9695389 36.1797772,27.5828064 36.1797772,27.1057477 L36.1797772,26.1573224 L33.5884035,26.1573224 L33.5884035,27.1057477 C33.5884035,27.5828064 33.201671,27.9695389 32.7246123,27.9695389 L5.08329295,27.9695389 C4.60623423,27.9695389 4.21950172,27.5828064 4.21950172,27.1057477 L4.21950172,25.1592979 Z M33.8763339,19.3929042 L33.8763339,24.42974 L35.8918468,24.42974 L35.8918468,19.3929042 L33.8763339,19.3929042 Z" id="Combined-Shape" transform="translate(15.880683, 21.880683) rotate(-45.000000) translate(-15.880683, -21.880683) "></path>
                        </g>
                    </g>
                </g>
            </g>
        </g>
    </g>
</svg>
